<svg xmlns="http://www.w3.org/2000/svg" viewBox="0 0 680 260" font-family="Segoe UI, Arial"><rect x="0" y="0" width="680" height="260" fill="#ffffff"/><text x="24" y="30" font-family="Segoe UI, Arial" font-size="17" font-weight="700" fill="#1a202c">Scaling — Min-Max vs Z-Score</text><line x1="60" y1="210" x2="260" y2="210" stroke="#cbd5e0" stroke-width="1.5"/><line x1="60" y1="210" x2="60" y2="60" stroke="#cbd5e0" stroke-width="1.5"/><circle cx="180" cy="-10" r="5" fill="#2b6cb0" stroke="#2b6cb0" stroke-width="1"/><circle cx="240" cy="90" r="5" fill="#2b6cb0" stroke="#2b6cb0" stroke-width="1"/><circle cx="300" cy="10" r="5" fill="#2b6cb0" stroke="#2b6cb0" stroke-width="1"/><circle cx="360" cy="120" r="5" fill="#2b6cb0" stroke="#2b6cb0" stroke-width="1"/><text x="120" y="230" text-anchor="middle" font-size="11" font-weight="normal" fill="#718096">raw (wide)</text><line x1="280" y1="210" x2="480" y2="210" stroke="#cbd5e0" stroke-width="1.5"/><line x1="280" y1="210" x2="280" y2="60" stroke="#cbd5e0" stroke-width="1.5"/><circle cx="400" cy="10" r="5" fill="#2f855a" stroke="#2f855a" stroke-width="1"/><circle cx="460" cy="90" r="5" fill="#2f855a" stroke="#2f855a" stroke-width="1"/><circle cx="520" cy="40" r="5" fill="#2f855a" stroke="#2f855a" stroke-width="1"/><circle cx="580" cy="120" r="5" fill="#2f855a" stroke="#2f855a" stroke-width="1"/><text x="340" y="230" text-anchor="middle" font-size="11" font-weight="normal" fill="#718096">min-max [0,1]</text><line x1="500" y1="210" x2="700" y2="210" stroke="#cbd5e0" stroke-width="1.5"/><line x1="500" y1="210" x2="500" y2="60" stroke="#cbd5e0" stroke-width="1.5"/><circle cx="650" cy="60" r="5" fill="#dd6b20" stroke="#dd6b20" stroke-width="1"/><circle cx="710" cy="90" r="5" fill="#dd6b20" stroke="#dd6b20" stroke-width="1"/><circle cx="770" cy="30" r="5" fill="#dd6b20" stroke="#dd6b20" stroke-width="1"/><circle cx="830" cy="80" r="5" fill="#dd6b20" stroke="#dd6b20" stroke-width="1"/><text x="560" y="230" text-anchor="middle" font-size="11" font-weight="normal" fill="#718096">z-score μ=0</text></svg>